<svg xmlns="http://www.w3.org/2000/svg" viewBox="0 0 1600 900" width="1600" height="900" role="img" aria-hidden="true">
  <defs>
    <linearGradient id="g1" x1="0" y1="0" x2="1" y2="1">
      <stop offset="0" stop-color="#1c2230"/><stop offset="1" stop-color="#0d1119"/>
    </linearGradient>
    <radialGradient id="g2" cx="0.78" cy="0.12" r="0.75">
      <stop offset="0" stop-color="#94a3b8" stop-opacity="0.28"/>
      <stop offset="1" stop-color="#94a3b8" stop-opacity="0"/>
    </radialGradient>
    <pattern id="g3" width="64" height="64" patternUnits="userSpaceOnUse">
      <path d="M64 0H0V64" fill="none" stroke="#3f4c63" stroke-opacity="0.28" stroke-width="1"/>
    </pattern>
  </defs>
  <rect width="1600" height="900" fill="url(#g1)"/>
  <rect width="1600" height="900" fill="url(#g3)"/>
  <rect width="1600" height="900" fill="url(#g2)"/>
  
  <defs>
    <filter id="g4" x="-20%" y="-20%" width="140%" height="150%">
      <feDropShadow dx="0" dy="18" stdDeviation="26" flood-color="#000" flood-opacity="0.42"/>
    </filter>
  </defs>
  <rect x="380" y="200" width="560" height="500" rx="22"
        fill="#2a3345" stroke="#3f4c63" stroke-width="2" filter="url(#g4)"/>
  <rect x="420" y="240" width="180" height="18" rx="9" fill="#cbd5e1" opacity="0.5"/>
  <rect x="426" y="292" width="46" height="10" rx="5" fill="#cbd5e1" opacity="0.25"/><rect x="500" y="292" width="46" height="10" rx="5" fill="#cbd5e1" opacity="0.25"/><rect x="574" y="292" width="46" height="10" rx="5" fill="#cbd5e1" opacity="0.25"/><rect x="648" y="292" width="46" height="10" rx="5" fill="#cbd5e1" opacity="0.25"/><rect x="722" y="292" width="46" height="10" rx="5" fill="#cbd5e1" opacity="0.25"/><rect x="796" y="292" width="46" height="10" rx="5" fill="#cbd5e1" opacity="0.25"/><rect x="870" y="292" width="46" height="10" rx="5" fill="#cbd5e1" opacity="0.25"/>
  <rect x="420" y="330" width="58" height="58" rx="12"
        fill="#0d1119" opacity="0.5" stroke="#3f4c63" stroke-width="1.5"/><rect x="494" y="330" width="58" height="58" rx="12"
        fill="#0d1119" opacity="0.5" stroke="#3f4c63" stroke-width="1.5"/><rect x="568" y="330" width="58" height="58" rx="12"
        fill="#0d1119" opacity="0.5" stroke="#3f4c63" stroke-width="1.5"/><rect x="642" y="330" width="58" height="58" rx="12"
        fill="#0d1119" opacity="0.5" stroke="#3f4c63" stroke-width="1.5"/><rect x="716" y="330" width="58" height="58" rx="12"
        fill="#0d1119" opacity="0.5" stroke="#3f4c63" stroke-width="1.5"/><rect x="790" y="330" width="58" height="58" rx="12"
        fill="#94a3b8" opacity="0.877974147349596" stroke="#3f4c63" stroke-width="1.5"/><rect x="864" y="330" width="58" height="58" rx="12"
        fill="#0d1119" opacity="0.5" stroke="#3f4c63" stroke-width="1.5"/><rect x="420" y="404" width="58" height="58" rx="12"
        fill="#0d1119" opacity="0.5" stroke="#3f4c63" stroke-width="1.5"/><rect x="494" y="404" width="58" height="58" rx="12"
        fill="#0d1119" opacity="0.5" stroke="#3f4c63" stroke-width="1.5"/><rect x="568" y="404" width="58" height="58" rx="12"
        fill="#0d1119" opacity="0.5" stroke="#3f4c63" stroke-width="1.5"/><rect x="642" y="404" width="58" height="58" rx="12"
        fill="#0d1119" opacity="0.5" stroke="#3f4c63" stroke-width="1.5"/><rect x="716" y="404" width="58" height="58" rx="12"
        fill="#0d1119" opacity="0.5" stroke="#3f4c63" stroke-width="1.5"/><rect x="790" y="404" width="58" height="58" rx="12"
        fill="#0d1119" opacity="0.5" stroke="#3f4c63" stroke-width="1.5"/><rect x="864" y="404" width="58" height="58" rx="12"
        fill="#94a3b8" opacity="0.8524680329021066" stroke="#3f4c63" stroke-width="1.5"/><rect x="420" y="478" width="58" height="58" rx="12"
        fill="#94a3b8" opacity="0.6185376653447747" stroke="#3f4c63" stroke-width="1.5"/><rect x="494" y="478" width="58" height="58" rx="12"
        fill="#94a3b8" opacity="0.91307805320248" stroke="#3f4c63" stroke-width="1.5"/><rect x="568" y="478" width="58" height="58" rx="12"
        fill="#0d1119" opacity="0.5" stroke="#3f4c63" stroke-width="1.5"/><rect x="642" y="478" width="58" height="58" rx="12"
        fill="#0d1119" opacity="0.5" stroke="#3f4c63" stroke-width="1.5"/><rect x="716" y="478" width="58" height="58" rx="12"
        fill="#94a3b8" opacity="0.6725958235096186" stroke="#3f4c63" stroke-width="1.5"/><rect x="790" y="478" width="58" height="58" rx="12"
        fill="#94a3b8" opacity="0.7702450396027416" stroke="#3f4c63" stroke-width="1.5"/><rect x="864" y="478" width="58" height="58" rx="12"
        fill="#0d1119" opacity="0.5" stroke="#3f4c63" stroke-width="1.5"/><rect x="420" y="552" width="58" height="58" rx="12"
        fill="#0d1119" opacity="0.5" stroke="#3f4c63" stroke-width="1.5"/><rect x="494" y="552" width="58" height="58" rx="12"
        fill="#94a3b8" opacity="0.6606603891588747" stroke="#3f4c63" stroke-width="1.5"/><rect x="568" y="552" width="58" height="58" rx="12"
        fill="#94a3b8" opacity="0.926496045757085" stroke="#3f4c63" stroke-width="1.5"/><rect x="642" y="552" width="58" height="58" rx="12"
        fill="#0d1119" opacity="0.5" stroke="#3f4c63" stroke-width="1.5"/><rect x="716" y="552" width="58" height="58" rx="12"
        fill="#94a3b8" opacity="0.6735647602006793" stroke="#3f4c63" stroke-width="1.5"/><rect x="790" y="552" width="58" height="58" rx="12"
        fill="#0d1119" opacity="0.5" stroke="#3f4c63" stroke-width="1.5"/><rect x="864" y="552" width="58" height="58" rx="12"
        fill="#94a3b8" opacity="0.5637864588759839" stroke="#3f4c63" stroke-width="1.5"/>
  
  <defs>
    <filter id="g5" x="-20%" y="-20%" width="140%" height="150%">
      <feDropShadow dx="0" dy="18" stdDeviation="26" flood-color="#000" flood-opacity="0.42"/>
    </filter>
  </defs>
  <rect x="990" y="260" width="280" height="380" rx="18"
        fill="#0d1119" stroke="#3f4c63" stroke-width="2" filter="url(#g5)"/>
  <rect x="1022" y="300" width="120" height="14" rx="7" fill="#cbd5e1" opacity="0.4"/>
  <circle cx="1130" cy="420" r="76" fill="none" stroke="#3f4c63" stroke-width="14"/>
  <circle cx="1130" cy="420" r="76" fill="none" stroke="#94a3b8" stroke-width="14" stroke-linecap="round"
          stroke-dasharray="340 478" transform="rotate(-90 1130 420)"/>
  <rect x="1022" y="530" width="216" height="12" rx="6" fill="#cbd5e1" opacity="0.4"/><rect x="1022" y="564" width="166" height="12" rx="6" fill="#cbd5e1" opacity="0.30000000000000004"/><rect x="1022" y="598" width="116" height="12" rx="6" fill="#cbd5e1" opacity="0.2"/></svg>