<svg xmlns="http://www.w3.org/2000/svg" viewBox="0 0 1600 900" width="1600" height="900" role="img" aria-hidden="true">
  <defs>
    <linearGradient id="g1" x1="0" y1="0" x2="1" y2="1">
      <stop offset="0" stop-color="#0f2e21"/><stop offset="1" stop-color="#071811"/>
    </linearGradient>
    <radialGradient id="g2" cx="0.78" cy="0.12" r="0.75">
      <stop offset="0" stop-color="#4ade80" stop-opacity="0.28"/>
      <stop offset="1" stop-color="#4ade80" stop-opacity="0"/>
    </radialGradient>
    <pattern id="g3" width="64" height="64" patternUnits="userSpaceOnUse">
      <path d="M64 0H0V64" fill="none" stroke="#22624d" stroke-opacity="0.28" stroke-width="1"/>
    </pattern>
  </defs>
  <rect width="1600" height="900" fill="url(#g1)"/>
  <rect width="1600" height="900" fill="url(#g3)"/>
  <rect width="1600" height="900" fill="url(#g2)"/>
  
    <rect x="390" y="200" width="250" height="540" rx="18" fill="#071811" opacity="0.5" stroke="#22624d" stroke-width="2"/>
    <rect x="414" y="228" width="104.19736007228494" height="14" rx="7" fill="#b6e6cd" opacity="0.45"/>
    
      <rect x="414" y="272" width="202" height="98" rx="12" fill="#164034" stroke="#22624d" stroke-width="2"/>
      <rect x="434" y="294" width="82.74230651557446" height="10" rx="5" fill="#4ade80" opacity="0.85"/>
      <rect x="434" y="318" width="147.68144886009395" height="12" rx="6" fill="#b6e6cd" opacity="0.4"/>
      <rect x="434" y="342" width="112.2310843039304" height="10" rx="5" fill="#b6e6cd" opacity="0.22"/>
      <rect x="414" y="390" width="202" height="98" rx="12" fill="#164034" stroke="#22624d" stroke-width="2"/>
      <rect x="434" y="412" width="88.60178072936833" height="10" rx="5" fill="#4ade80" opacity="0.85"/>
      <rect x="434" y="436" width="123.69850933551788" height="12" rx="6" fill="#b6e6cd" opacity="0.4"/>
      <rect x="434" y="460" width="84.30454541929066" height="10" rx="5" fill="#b6e6cd" opacity="0.22"/>
      <rect x="414" y="508" width="202" height="98" rx="12" fill="#164034" stroke="#22624d" stroke-width="2"/>
      <rect x="434" y="530" width="74.75854152813554" height="10" rx="5" fill="#4ade80" opacity="0.85"/>
      <rect x="434" y="554" width="159.63248732499778" height="12" rx="6" fill="#b6e6cd" opacity="0.4"/>
      <rect x="434" y="578" width="100.84760721772909" height="10" rx="5" fill="#b6e6cd" opacity="0.22"/>
    <rect x="680" y="200" width="250" height="540" rx="18" fill="#071811" opacity="0.5" stroke="#22624d" stroke-width="2"/>
    <rect x="704" y="228" width="93.49726278800517" height="14" rx="7" fill="#b6e6cd" opacity="0.45"/>
    
      <rect x="704" y="272" width="202" height="98" rx="12" fill="#164034" stroke="#22624d" stroke-width="2"/>
      <rect x="724" y="294" width="72.66921601258218" height="10" rx="5" fill="#fbbf60" opacity="0.85"/>
      <rect x="724" y="318" width="156.52754203416407" height="12" rx="6" fill="#b6e6cd" opacity="0.4"/>
      <rect x="724" y="342" width="84.62544712238014" height="10" rx="5" fill="#b6e6cd" opacity="0.22"/>
      <rect x="704" y="390" width="202" height="98" rx="12" fill="#164034" stroke="#22624d" stroke-width="2"/>
      <rect x="724" y="412" width="72.72856089286506" height="10" rx="5" fill="#fbbf60" opacity="0.85"/>
      <rect x="724" y="436" width="151.45808349363506" height="12" rx="6" fill="#b6e6cd" opacity="0.4"/>
      <rect x="724" y="460" width="81.23908466659486" height="10" rx="5" fill="#b6e6cd" opacity="0.22"/>
      <rect x="704" y="508" width="202" height="98" rx="12" fill="#164034" stroke="#22624d" stroke-width="2"/>
      <rect x="724" y="530" width="62.13539240881801" height="10" rx="5" fill="#fbbf60" opacity="0.85"/>
      <rect x="724" y="554" width="144.10401270724833" height="12" rx="6" fill="#b6e6cd" opacity="0.4"/>
      <rect x="724" y="578" width="119.2897663358599" height="10" rx="5" fill="#b6e6cd" opacity="0.22"/>
    <rect x="970" y="200" width="250" height="540" rx="18" fill="#071811" opacity="0.5" stroke="#22624d" stroke-width="2"/>
    <rect x="994" y="228" width="139.73492140416056" height="14" rx="7" fill="#b6e6cd" opacity="0.45"/>
    
      <rect x="994" y="272" width="202" height="98" rx="12" fill="#164034" stroke="#22624d" stroke-width="2"/>
      <rect x="1014" y="294" width="89.35468522831798" height="10" rx="5" fill="#fbbf60" opacity="0.85"/>
      <rect x="1014" y="318" width="128.7767289299518" height="12" rx="6" fill="#b6e6cd" opacity="0.4"/>
      <rect x="1014" y="342" width="85.6125964038074" height="10" rx="5" fill="#b6e6cd" opacity="0.22"/>
      <rect x="994" y="390" width="202" height="98" rx="12" fill="#164034" stroke="#22624d" stroke-width="2"/>
      <rect x="1014" y="412" width="98.10961787588894" height="10" rx="5" fill="#fbbf60" opacity="0.85"/>
      <rect x="1014" y="436" width="135.73682504706085" height="12" rx="6" fill="#b6e6cd" opacity="0.4"/>
      <rect x="1014" y="460" width="113.56523661874235" height="10" rx="5" fill="#b6e6cd" opacity="0.22"/>
  <rect x="984" y="628" width="202" height="98" rx="12" fill="#164034" stroke="#4ade80" stroke-width="3" transform="rotate(-4 1085 677)"/>
  <rect x="1004" y="650" width="90" height="10" rx="5" fill="#4ade80" transform="rotate(-4 1085 677)"/>
  <rect x="1004" y="674" width="150" height="12" rx="6" fill="#b6e6cd" opacity="0.4" transform="rotate(-4 1085 677)"/></svg>