<svg xmlns="http://www.w3.org/2000/svg" viewBox="0 0 1600 900" width="1600" height="900" role="img" aria-hidden="true">
  <defs>
    <linearGradient id="g1" x1="0" y1="0" x2="1" y2="1">
      <stop offset="0" stop-color="#33153a"/><stop offset="1" stop-color="#1b0a1f"/>
    </linearGradient>
    <radialGradient id="g2" cx="0.78" cy="0.12" r="0.75">
      <stop offset="0" stop-color="#e879f9" stop-opacity="0.28"/>
      <stop offset="1" stop-color="#e879f9" stop-opacity="0"/>
    </radialGradient>
    <pattern id="g3" width="64" height="64" patternUnits="userSpaceOnUse">
      <path d="M64 0H0V64" fill="none" stroke="#6d2f7b" stroke-opacity="0.28" stroke-width="1"/>
    </pattern>
  </defs>
  <rect width="1600" height="900" fill="url(#g1)"/>
  <rect width="1600" height="900" fill="url(#g3)"/>
  <rect width="1600" height="900" fill="url(#g2)"/>
  
  <defs>
    <filter id="g4" x="-20%" y="-20%" width="140%" height="150%">
      <feDropShadow dx="0" dy="18" stdDeviation="26" flood-color="#000" flood-opacity="0.42"/>
    </filter>
  </defs>
  <rect x="380" y="200" width="880" height="520" rx="22"
        fill="#4a1f54" stroke="#6d2f7b" stroke-width="2" filter="url(#g4)"/>
  <polygon points="430,660 430,621.8179973703809 516,537.6943372492678 602,540.1884856144898 688,512.6880188984796 774,395.88737276382744 860,413.457039820496 946,327.8527881903574 1032,281.61963239545 1118,230.73745084227994 1204,202.65854867408052 1204,660" fill="#e879f9" opacity="0.2"/>
  <polyline points="430,621.8179973703809 516,537.6943372492678 602,540.1884856144898 688,512.6880188984796 774,395.88737276382744 860,413.457039820496 946,327.8527881903574 1032,281.61963239545 1118,230.73745084227994 1204,202.65854867408052" fill="none" stroke="#e879f9" stroke-width="7" stroke-linecap="round" stroke-linejoin="round"/>
  <circle cx="430" cy="621.8179973703809" r="8" fill="#1b0a1f" stroke="#e879f9" stroke-width="4"/><circle cx="516" cy="537.6943372492678" r="8" fill="#1b0a1f" stroke="#e879f9" stroke-width="4"/><circle cx="602" cy="540.1884856144898" r="8" fill="#1b0a1f" stroke="#e879f9" stroke-width="4"/><circle cx="688" cy="512.6880188984796" r="8" fill="#1b0a1f" stroke="#e879f9" stroke-width="4"/><circle cx="774" cy="395.88737276382744" r="8" fill="#1b0a1f" stroke="#e879f9" stroke-width="4"/><circle cx="860" cy="413.457039820496" r="8" fill="#1b0a1f" stroke="#e879f9" stroke-width="4"/><circle cx="946" cy="327.8527881903574" r="8" fill="#1b0a1f" stroke="#e879f9" stroke-width="4"/><circle cx="1032" cy="281.61963239545" r="8" fill="#1b0a1f" stroke="#e879f9" stroke-width="4"/><circle cx="1118" cy="230.73745084227994" r="8" fill="#1b0a1f" stroke="#e879f9" stroke-width="4"/><circle cx="1204" cy="202.65854867408052" r="8" fill="#1b0a1f" stroke="#e879f9" stroke-width="4"/>
  <line x1="420" y1="660" x2="1220" y2="660" stroke="#6d2f7b" stroke-width="3"/>
  
    <rect x="430" y="250" width="300" height="30" rx="8" fill="#67e8f9" opacity="0.5"/>
    <rect x="450" y="290" width="260" height="30" rx="8" fill="#67e8f9" opacity="0.38"/>
    <rect x="470" y="330" width="220" height="30" rx="8" fill="#67e8f9" opacity="0.26"/></svg>