<svg xmlns="http://www.w3.org/2000/svg" viewBox="0 0 1600 900" width="1600" height="900" role="img" aria-hidden="true">
  <defs>
    <linearGradient id="g1" x1="0" y1="0" x2="1" y2="1">
      <stop offset="0" stop-color="#1c2230"/><stop offset="1" stop-color="#0d1119"/>
    </linearGradient>
    <radialGradient id="g2" cx="0.78" cy="0.12" r="0.75">
      <stop offset="0" stop-color="#94a3b8" stop-opacity="0.28"/>
      <stop offset="1" stop-color="#94a3b8" stop-opacity="0"/>
    </radialGradient>
    <pattern id="g3" width="64" height="64" patternUnits="userSpaceOnUse">
      <path d="M64 0H0V64" fill="none" stroke="#3f4c63" stroke-opacity="0.28" stroke-width="1"/>
    </pattern>
  </defs>
  <rect width="1600" height="900" fill="url(#g1)"/>
  <rect width="1600" height="900" fill="url(#g3)"/>
  <rect width="1600" height="900" fill="url(#g2)"/>
  
  <defs>
    <filter id="g4" x="-20%" y="-20%" width="140%" height="150%">
      <feDropShadow dx="0" dy="18" stdDeviation="26" flood-color="#000" flood-opacity="0.42"/>
    </filter>
  </defs>
  <rect x="340" y="180" width="920" height="560" rx="22"
        fill="#2a3345" stroke="#3f4c63" stroke-width="2" filter="url(#g4)"/>
  <rect x="380" y="220" width="240" height="18" rx="9" fill="#cbd5e1" opacity="0.5"/>
  
    <rect x="380" y="266" width="260" height="96" rx="14" fill="#0d1119" opacity="0.5" stroke="#3f4c63" stroke-width="2"/>
    <rect x="404" y="290" width="76.5429458511062" height="12" rx="6" fill="#cbd5e1" opacity="0.35"/>
    <rect x="404" y="316" width="117.28715023491532" height="24" rx="8" fill="#94a3b8" opacity="0.9"/>
    <rect x="670" y="266" width="260" height="96" rx="14" fill="#0d1119" opacity="0.5" stroke="#3f4c63" stroke-width="2"/>
    <rect x="694" y="290" width="77.72218798520043" height="12" rx="6" fill="#cbd5e1" opacity="0.35"/>
    <rect x="694" y="316" width="121.20167221408337" height="24" rx="8" fill="#cbd5e1" opacity="0.55"/>
    <rect x="960" y="266" width="260" height="96" rx="14" fill="#0d1119" opacity="0.5" stroke="#3f4c63" stroke-width="2"/>
    <rect x="984" y="290" width="71.64177984697744" height="12" rx="6" fill="#cbd5e1" opacity="0.35"/>
    <rect x="984" y="316" width="146.47908847313374" height="24" rx="8" fill="#cbd5e1" opacity="0.55"/>
  <line x1="400" y1="640" x2="1200" y2="640" stroke="#3f4c63" stroke-width="3"/>
  <rect x="420" y="416.04370472719893" width="52" height="223.95629527280107" rx="10" fill="#60a5fa" opacity="0.4"/><rect x="504" y="561.9550460623577" width="52" height="78.04495393764228" rx="10" fill="#60a5fa" opacity="0.4"/><rect x="588" y="430.17389935906976" width="52" height="209.82610064093024" rx="10" fill="#60a5fa" opacity="0.4"/><rect x="672" y="456.2092473125085" width="52" height="183.79075268749148" rx="10" fill="#60a5fa" opacity="0.4"/><rect x="756" y="482.23592994967476" width="52" height="157.76407005032524" rx="10" fill="#60a5fa" opacity="0.4"/><rect x="840" y="563.4634020808153" width="52" height="76.53659791918471" rx="10" fill="#60a5fa" opacity="0.4"/><rect x="924" y="496.8258804222569" width="52" height="143.1741195777431" rx="10" fill="#94a3b8" opacity="0.95"/><rect x="1008" y="372.9857486090623" width="52" height="267.0142513909377" rx="10" fill="#60a5fa" opacity="0.4"/><rect x="1092" y="399.85958747565746" width="52" height="240.14041252434254" rx="10" fill="#60a5fa" opacity="0.4"/>
  <polyline points="446,408.5021751234308 530,554.9865375366062 614,386.9696430955082 698,410.6569154141471 782,549.0559619292617 866,433.53961718734354 950,452.3281249636784 1034,444.7810941329226 1118,499.61312275379896" fill="none" stroke="#94a3b8" stroke-width="6" stroke-linecap="round" stroke-linejoin="round" opacity="0.9"/>
  <circle cx="446" cy="408.5021751234308" r="7" fill="#94a3b8"/><circle cx="530" cy="554.9865375366062" r="7" fill="#94a3b8"/><circle cx="614" cy="386.9696430955082" r="7" fill="#94a3b8"/><circle cx="698" cy="410.6569154141471" r="7" fill="#94a3b8"/><circle cx="782" cy="549.0559619292617" r="7" fill="#94a3b8"/><circle cx="866" cy="433.53961718734354" r="7" fill="#94a3b8"/><circle cx="950" cy="452.3281249636784" r="7" fill="#94a3b8"/><circle cx="1034" cy="444.7810941329226" r="7" fill="#94a3b8"/><circle cx="1118" cy="499.61312275379896" r="7" fill="#94a3b8"/></svg>