<svg xmlns="http://www.w3.org/2000/svg" viewBox="0 0 1600 900" width="1600" height="900" role="img" aria-hidden="true">
  <defs>
    <linearGradient id="g1" x1="0" y1="0" x2="1" y2="1">
      <stop offset="0" stop-color="#1b1f43"/><stop offset="1" stop-color="#0e1027"/>
    </linearGradient>
    <radialGradient id="g2" cx="0.78" cy="0.12" r="0.75">
      <stop offset="0" stop-color="#8b93ff" stop-opacity="0.28"/>
      <stop offset="1" stop-color="#8b93ff" stop-opacity="0"/>
    </radialGradient>
    <pattern id="g3" width="64" height="64" patternUnits="userSpaceOnUse">
      <path d="M64 0H0V64" fill="none" stroke="#3c4382" stroke-opacity="0.28" stroke-width="1"/>
    </pattern>
  </defs>
  <rect width="1600" height="900" fill="url(#g1)"/>
  <rect width="1600" height="900" fill="url(#g3)"/>
  <rect width="1600" height="900" fill="url(#g2)"/>
  <line x1="400" y1="450" x2="1200" y2="450" stroke="#3c4382" stroke-width="6"/>
  
    <circle cx="510" cy="450" r="70" fill="#252a58" stroke="#5de4c7" stroke-width="6"/>
    <path d="M482 450 l20 22 l38 -44" fill="none" stroke="#5de4c7" stroke-width="9" stroke-linecap="round" stroke-linejoin="round"/>
    <rect x="450" y="570" width="120" height="14" rx="7" fill="#c9cdf5" opacity="0.4"/>
    <rect x="466" y="600" width="88" height="11" rx="6" fill="#c9cdf5" opacity="0.22"/>
    <circle cx="760" cy="450" r="70" fill="#252a58" stroke="#5de4c7" stroke-width="6"/>
    <path d="M732 450 l20 22 l38 -44" fill="none" stroke="#5de4c7" stroke-width="9" stroke-linecap="round" stroke-linejoin="round"/>
    <rect x="700" y="570" width="120" height="14" rx="7" fill="#c9cdf5" opacity="0.4"/>
    <rect x="716" y="600" width="88" height="11" rx="6" fill="#c9cdf5" opacity="0.22"/>
    <circle cx="1010" cy="450" r="70" fill="#252a58" stroke="#8b93ff" stroke-width="6"/>
    <circle cx="1010" cy="450" r="26" fill="none" stroke="#8b93ff" stroke-width="9" stroke-dasharray="60 40" stroke-linecap="round"/>
    <rect x="950" y="570" width="120" height="14" rx="7" fill="#c9cdf5" opacity="0.4"/>
    <rect x="966" y="600" width="88" height="11" rx="6" fill="#c9cdf5" opacity="0.22"/>
    <circle cx="1260" cy="450" r="70" fill="#252a58" stroke="#3c4382" stroke-width="6"/>
    <circle cx="1260" cy="450" r="16" fill="#3c4382"/>
    <rect x="1200" y="570" width="120" height="14" rx="7" fill="#c9cdf5" opacity="0.4"/>
    <rect x="1216" y="600" width="88" height="11" rx="6" fill="#c9cdf5" opacity="0.22"/>
  <path d="M580 450 l30 -14 v28 z" fill="#8b93ff" opacity="0.8"/><path d="M830 450 l30 -14 v28 z" fill="#8b93ff" opacity="0.8"/><path d="M1080 450 l30 -14 v28 z" fill="#8b93ff" opacity="0.8"/>
  <rect x="440" y="250" width="79.94409319013357" height="12" rx="6" fill="#c9cdf5" opacity="0.22"/><rect x="500" y="250" width="64.05056413728744" height="12" rx="6" fill="#c9cdf5" opacity="0.22"/><rect x="560" y="250" width="86.65545685216784" height="12" rx="6" fill="#c9cdf5" opacity="0.22"/><rect x="620" y="250" width="49.33246188797057" height="12" rx="6" fill="#c9cdf5" opacity="0.22"/><rect x="680" y="250" width="85.5903750937432" height="12" rx="6" fill="#c9cdf5" opacity="0.22"/></svg>