<svg xmlns="http://www.w3.org/2000/svg" viewBox="0 0 1600 900" width="1600" height="900" role="img" aria-hidden="true">
  <defs>
    <linearGradient id="g1" x1="0" y1="0" x2="1" y2="1">
      <stop offset="0" stop-color="#0f2e21"/><stop offset="1" stop-color="#071811"/>
    </linearGradient>
    <radialGradient id="g2" cx="0.78" cy="0.12" r="0.75">
      <stop offset="0" stop-color="#4ade80" stop-opacity="0.28"/>
      <stop offset="1" stop-color="#4ade80" stop-opacity="0"/>
    </radialGradient>
    <pattern id="g3" width="64" height="64" patternUnits="userSpaceOnUse">
      <path d="M64 0H0V64" fill="none" stroke="#22624d" stroke-opacity="0.28" stroke-width="1"/>
    </pattern>
  </defs>
  <rect width="1600" height="900" fill="url(#g1)"/>
  <rect width="1600" height="900" fill="url(#g3)"/>
  <rect width="1600" height="900" fill="url(#g2)"/>
  
  <defs>
    <filter id="g4" x="-20%" y="-20%" width="140%" height="150%">
      <feDropShadow dx="0" dy="18" stdDeviation="26" flood-color="#000" flood-opacity="0.42"/>
    </filter>
  </defs>
  <rect x="320" y="170" width="960" height="600" rx="22"
        fill="#164034" stroke="#22624d" stroke-width="2" filter="url(#g4)"/>
  <rect x="320" y="170" width="960" height="70" rx="22" fill="#22624d" opacity="0.45"/>
  <rect x="320" y="218" width="960" height="22" fill="#22624d" opacity="0.2"/>
  <circle cx="362" cy="205" r="9" fill="#4ade80" opacity="0.85"/>
  <circle cx="392" cy="205" r="9" fill="#b6e6cd" opacity="0.35"/>
  <circle cx="422" cy="205" r="9" fill="#b6e6cd" opacity="0.22"/>
  <rect x="470" y="190" width="620" height="32" rx="16" fill="#000" opacity="0.28"/>
  <rect x="490" y="200" width="220" height="12" rx="6" fill="#b6e6cd" opacity="0.35"/>
  <rect x="360" y="280" width="880" height="150" rx="14" fill="#4ade80" opacity="0.16"/>
  <rect x="392" y="316" width="300" height="20" rx="10" fill="#4ade80" opacity="0.8"/>
  <rect x="392" y="352" width="440" height="14" rx="7" fill="#b6e6cd" opacity="0.4"/>
  <rect x="392" y="378" width="360" height="14" rx="7" fill="#b6e6cd" opacity="0.28"/>
  
    <rect x="360" y="460" width="270" height="250" rx="16" fill="#071811" opacity="0.55" stroke="#22624d" stroke-width="2"/>
    <rect x="384" y="486" width="222" height="104" rx="10" fill="#fbbf60" opacity="0.1841374427266419"/>
    <rect x="384" y="608" width="136.82586369104683" height="14" rx="7" fill="#b6e6cd" opacity="0.5"/>
    <rect x="384" y="638" width="118.50218354025856" height="12" rx="6" fill="#b6e6cd" opacity="0.28"/>
    <rect x="660" y="460" width="270" height="250" rx="16" fill="#071811" opacity="0.55" stroke="#22624d" stroke-width="2"/>
    <rect x="684" y="486" width="222" height="104" rx="10" fill="#fbbf60" opacity="0.3354827344603837"/>
    <rect x="684" y="608" width="200.85056027630344" height="14" rx="7" fill="#b6e6cd" opacity="0.5"/>
    <rect x="684" y="638" width="152.5833161571063" height="12" rx="6" fill="#b6e6cd" opacity="0.28"/>
    <rect x="960" y="460" width="270" height="250" rx="16" fill="#071811" opacity="0.55" stroke="#22624d" stroke-width="2"/>
    <rect x="984" y="486" width="222" height="104" rx="10" fill="#fbbf60" opacity="0.22386270763352512"/>
    <rect x="984" y="608" width="160.78453038353473" height="14" rx="7" fill="#b6e6cd" opacity="0.5"/>
    <rect x="984" y="638" width="115.3275633067824" height="12" rx="6" fill="#b6e6cd" opacity="0.28"/></svg>